inDegrees=no
num_controls=7
num_derivatives=13
num_iterations=66
num_multipliers=7
num_parameters=0
num_slacks=7
num_states=26
objective=0.449244
objective_accelerations=0.050708
objective_balance=0.006575
objective_effort=0.036335
objective_height=0.350681
objective_ligament=0.004945
solver_duration=948.249035
status=Solve_Succeeded
success=true
DataType=double
version=3
OpenSimVersion=4.5
endheader
time	/jointset/ground_pelvis/pelvis_tilt/value	/jointset/ground_pelvis/pelvis_tx/value	/jointset/ground_pelvis/pelvis_ty/value	/jointset/hip_l/hip_flexion_l/value	/jointset/hip_l/hip_adduction_l/value	/jointset/hip_l/hip_rotation_l/value	/jointset/back/lumbar_extension/value	/jointset/patellofemoral_l/patellar_flexion_l/value	/jointset/knee_l/knee_flexion_l/value	/jointset/knee_l/knee_adduction_l/value	/jointset/knee_l/knee_rotation_l/value	/jointset/ankle_l/ankle_angle_l/value	/jointset/subtalar_l/subtalar_angle_l/value	/jointset/ground_pelvis/pelvis_tilt/speed	/jointset/ground_pelvis/pelvis_tx/speed	/jointset/ground_pelvis/pelvis_ty/speed	/jointset/hip_l/hip_flexion_l/speed	/jointset/hip_l/hip_adduction_l/speed	/jointset/hip_l/hip_rotation_l/speed	/jointset/back/lumbar_extension/speed	/jointset/patellofemoral_l/patellar_flexion_l/speed	/jointset/knee_l/knee_flexion_l/speed	/jointset/knee_l/knee_adduction_l/speed	/jointset/knee_l/knee_rotation_l/speed	/jointset/ankle_l/ankle_angle_l/speed	/jointset/subtalar_l/subtalar_angle_l/speed	/forceset/tau_hip_flexion_l	/forceset/tau_hip_adduction_l	/forceset/tau_hip_rotation_l	/forceset/tau_knee_flexion_l	/forceset/tau_ankle_angle_l	/forceset/tau_subtalar_angle_l	/forceset/tau_lumbar_extension	lambda_cid13_p0	lambda_cid13_p1	lambda_cid13_p2	lambda_cid13_p3	lambda_cid13_p4	lambda_cid13_p5	lambda_cid14_p0	/jointset/ground_pelvis/pelvis_tilt/accel	/jointset/ground_pelvis/pelvis_tx/accel	/jointset/ground_pelvis/pelvis_ty/accel	/jointset/hip_l/hip_flexion_l/accel	/jointset/hip_l/hip_adduction_l/accel	/jointset/hip_l/hip_rotation_l/accel	/jointset/back/lumbar_extension/accel	/jointset/patellofemoral_l/patellar_flexion_l/accel	/jointset/knee_l/knee_flexion_l/accel	/jointset/knee_l/knee_adduction_l/accel	/jointset/knee_l/knee_rotation_l/accel	/jointset/ankle_l/ankle_angle_l/accel	/jointset/subtalar_l/subtalar_angle_l/accel	gamma_cid13_p0	gamma_cid13_p1	gamma_cid13_p2	gamma_cid13_p3	gamma_cid13_p4	gamma_cid13_p5	gamma_cid14_p0
1.5	-0.4360199511995491	-0.06188837372764153	0.7628408242000015	1.257594341056183	-0.3081209601813769	-0.03192254478658605	-0.3407949337038007	0.720400103426319	0.7204001034264275	-0.1718531983371624	0.1720400243170102	0.06910258173953507	-0.04131066575029445	0.7060970822140872	0.2337739337370196	0.4935486807158027	-2.322488682985978	0.02280819061390402	-0.6286593878786371	0.5704578381859713	-1.829785433077174	-1.829785433077054	0.007563869062245714	-0.0134510974414246	-0.3136516558330151	-0.0177076216721692	-0.2429849493927598	0.06518965898551643	-0.02160313865111034	-0.2055374660052417	0.1270672481383152	0.001382654868551011	0.2203049612858367	1.114299431469784	-3.085867834441531	2.705597620890278	-3.8116666654767	-608.4402713350294	-20.48234815222207	-26.41532538737781	0.5991955684770155	0.6335596149672743	-0.3267805191867791	-1.456587513454669	0.5962574897493308	-0.3027501994039091	1.68398729269264	-1.134824140328921	-1.134824140329026	0.01459998960015095	-0.02826469197615501	-0.2402985724960998	0.571392760077769	3.376554078221017e-07	7.575432308780973e-07	-1.71535718113313e-06	-1.356672543603781e-07	4.151337204201052e-07	6.024738562946509e-08	3.44270186389295e-07
1.51	-0.4289292981767682	-0.05951911652674859	0.7677590567836503	1.23429852101614	-0.3078644893180834	-0.03822216483450978	-0.3350076255939701	0.7020473877068891	0.7020473877068893	-0.1717805739837693	0.1719043178280223	0.06595410364638914	-0.04146077962469979	0.7119362526491841	0.240053401908741	0.4899997613624983	-2.336358247061082	0.02849257722397102	-0.6311714910571173	0.5869298280857208	-1.840498362068233	-1.840498362068144	0.006944449243551709	-0.01369757549855101	-0.3159794982790194	-0.01230677873455609	-0.2350375695480625	0.0646337857788287	-0.02150556403002832	-0.2043429380367263	0.1282432722116552	0.0004600151369303223	0.2141357405296835	1.704676463488174	-2.927595452889641	2.839203320643651	-3.957280486324454	-604.0689726495464	-20.60237315241425	-27.4896264941481	0.5617311451886897	0.6214934214780614	-0.3835645137430696	-1.304524469948567	0.5556848547456326	-0.2111197786743096	1.617711484398077	-1.000701533813157	-1.000701533817894	-0.102652656268473	-0.02353881382152097	-0.2193550894488232	0.5257806063735633	3.686669564096973e-07	8.023529482711243e-07	-1.858112965751323e-06	-1.49472725282834e-07	4.524258245863632e-07	9.884810486176221e-08	3.697205781408666e-07
1.52	-0.4217831627768057	-0.05708779404349795	0.772638876799698	1.21087352861226	-0.3075509434670741	-0.0445440417945232	-0.3290578162559855	0.6835953078464948	0.6835953078463707	-0.1717146317662986	0.1717660066682034	0.06278428152702414	-0.04155661496057485	0.7171935576507859	0.2461869902085552	0.485866167195599	-2.348323155752608	0.03422318815844885	-0.6331107702997629	0.602958083816757	-1.849658261272041	-1.849658261271984	0.006227441878290846	-0.01397203160530301	-0.3179204610768696	-0.006851913966118887	-0.227090189703366	0.0640779125721663	-0.02140798940915013	-0.2031484100681695	0.1294192962850163	-0.0004626245946462624	0.2079665197735182	2.291410160999422	-2.773523761597312	2.97900665817973	-4.124751030611335	-599.7660110319314	-20.809555099058	-28.55724427932318	0.4828224817780205	0.6043836405858505	-0.4437154819057759	-1.075656436739342	0.6055023546314989	-0.1881854122369552	1.595240458949985	-0.8242181828789156	-0.8242181828789358	-0.00491751971322157	-0.03386030190127276	-0.1629226428652489	0.5821971262425973	3.17177393877254e-07	9.772403714666556e-07	-1.604448956496758e-06	-8.842039569426244e-08	4.269710967576884e-07	1.561267779884356e-07	3.478359964021735e-07
1.53	-0.4145874592963064	-0.05459594772526175	0.7774744739725838	1.187338680731945	-0.3071795162766314	-0.05088457593440256	-0.3229500960852665	0.665059855385969	0.6650598553858496	-0.1716544421218703	0.17162626766802	0.05959716249775438	-0.04159722422080708	0.7218414161298823	0.2521487343595555	0.4811607445867792	-2.358317484446833	0.04006656685657849	-0.6348980792937658	0.618491977041153	-1.857174706690959	-1.857174706690846	0.005793069776385568	-0.01398757127750827	-0.3194432329150884	-0.001264804969608494	-0.2190016439394323	0.06326025060992414	-0.02131660203333507	-0.2021009816859516	0.1307038495097713	-0.001510239097624312	0.2016380229779725	2.902076840724404	-2.570523904646235	3.112331480876677	-4.23672686258275	-595.5321620897839	-20.97629707970292	-29.60630660887122	0.4399273305672044	0.5870644271408194	-0.497776963721873	-0.9119577992830884	0.5743059768020424	-0.1590575105732572	1.518367761256351	-0.6767765036169698	-0.6767765036087966	-0.06508924807842584	0.01299863061719843	-0.1379190725047564	0.5475744499670907	1.780304007797701e-07	1.290335357077346e-06	-9.295889162523931e-07	5.216834693727476e-08	3.348478599343981e-07	2.332507771278835e-07	2.756580053300746e-07
